<?xml version="1.0" encoding="utf-8"?>
<!-- Generator: Adobe Illustrator 23.0.3, SVG Export Plug-In . SVG Version: 6.00 Build 0)  -->
<svg version="1.1" id="Слой_1" xmlns="http://www.w3.org/2000/svg" xmlns:xlink="http://www.w3.org/1999/xlink" x="0px" y="0px"
	 viewBox="0 0 322.5 322.5" style="enable-background:new 0 0 322.5 322.5;" xml:space="preserve">
<style type="text/css">
	.st0{fill:url(#SVGID_1_);}
	.st1{fill:url(#SVGID_2_);}
</style>
<linearGradient id="SVGID_1_" gradientUnits="userSpaceOnUse" x1="5.9362" y1="161.25" x2="318.7024" y2="161.25">
	<stop  offset="0" style="stop-color:#00D9FF"/>
	<stop  offset="1" style="stop-color:#1C5EFF"/>
</linearGradient>
<path class="st0" d="M161.43,322.5L161.43,322.5c9.41,0,17.11-7.7,17.11-17.11V17.11c0-9.41-7.7-17.11-17.11-17.11h0
	c-9.41,0-17.11,7.7-17.11,17.11v288.29C144.32,314.8,152.02,322.5,161.43,322.5z"/>
<linearGradient id="SVGID_2_" gradientUnits="userSpaceOnUse" x1="0.1755" y1="161.25" x2="322.6755" y2="161.25">
	<stop  offset="0" style="stop-color:#00D9FF"/>
	<stop  offset="1" style="stop-color:#1C5EFF"/>
</linearGradient>
<path class="st1" d="M322.68,161.25L322.68,161.25c0-9.41-7.7-17.11-17.11-17.11H17.28c-9.41,0-17.11,7.7-17.11,17.11v0
	c0,9.41,7.7,17.11,17.11,17.11h288.29C314.98,178.36,322.68,170.66,322.68,161.25z"/>
</svg>
