<?xml version="1.0" encoding="utf-8"?>
<!-- Generator: Adobe Illustrator 25.2.3, SVG Export Plug-In . SVG Version: 6.00 Build 0)  -->
<svg version="1.1" id="Layer_1" xmlns="http://www.w3.org/2000/svg" xmlns:xlink="http://www.w3.org/1999/xlink" x="0px" y="0px"
	 viewBox="0 0 82.32 61.79" style="enable-background:new 0 0 82.32 61.79;" xml:space="preserve">
<style type="text/css">
	.st0{fill:#FFFFFF;}
</style>
<path class="st0" d="M69.89,6.03c-2.46-2.9-17.37-6.3-18.04-5.97S50.2,5.07,50.2,5.07s-4.67-0.99-9.35-0.98
	c-4.67,0.01-9.34,1.02-9.34,1.02s-1.01-4.67-1.68-5S14.27,3.24,11.82,6.15C2.83,16.85-1.79,44.23,0.9,51.23
	c1.5,3.91,19.05,10.97,20.72,10.64c1.67-0.34,4.33-5.02,3.66-6.35c-0.67-1.33-4.01-2.33-5.35-2.99c-1.34-0.66-0.34-2.67,1.33-2.01
	c1.96,0.78,7.02,4.66,19.7,4.63c12.68-0.03,17.72-3.93,19.68-4.71c1.67-0.67,2.67,1.33,1.34,2s-4.67,1.68-5.33,3.02
	c-0.66,1.34,2.02,6,3.69,6.33C62,62.12,79.52,54.97,81,51.06C83.66,44.05,78.93,16.69,69.89,6.03z M32.96,38.82
	c-1.93,2.36-4.16,3.43-6.68,3.21c-2.53-0.22-4.58-1.58-6.15-4.07c-0.72-1.15-1.09-2.31-1.09-3.49c0-1.51,0.52-3.1,1.56-4.77
	c2.22-2.33,4.42-3.5,6.58-3.5c0.72,0,1.38,0.1,1.97,0.29c2.76,0.91,4.56,2.61,5.42,5.1c0.26,0.75,0.4,1.51,0.4,2.26
	C34.97,35.52,34.3,37.17,32.96,38.82z M60.79,38.76c-1.93,2.36-4.16,3.43-6.68,3.21c-2.53-0.22-4.58-1.58-6.15-4.07
	c-0.72-1.15-1.09-2.31-1.09-3.49c0-1.51,0.52-3.1,1.56-4.77c2.22-2.33,4.42-3.5,6.58-3.5c0.72,0,1.38,0.1,1.97,0.29
	c2.76,0.91,4.56,2.61,5.42,5.1c0.26,0.75,0.4,1.51,0.4,2.26C62.8,35.46,62.13,37.11,60.79,38.76z"/>
</svg>
