<?xml version="1.0" encoding="utf-8"?>
<!-- Generator: Adobe Illustrator 25.2.3, SVG Export Plug-In . SVG Version: 6.00 Build 0)  -->
<svg version="1.1" id="Layer_1" xmlns="http://www.w3.org/2000/svg" xmlns:xlink="http://www.w3.org/1999/xlink" x="0px" y="0px"
	 viewBox="0 0 86.32 47.79" style="enable-background:new 0 0 86.32 47.79;" xml:space="preserve">
<style type="text/css">
	.st0{fill:#FFFFFF;}
</style>
<path class="st0" d="M1.51,2.64c3.9,0,12.23,0,15.05,0c0.58,0,1.1,0.34,1.35,0.87c3.45,7.52,7.67,14.32,12.74,20.31
	c0.44,0.7,1.49,0.63,1.81-0.14c1.59-3.85,4.51-13.23-1.15-19.89C30.8,3.2,31,2.27,31.72,1.97c5.73-2.39,11.34-2.74,16.8-0.29
	c1.15,0.51,1.9,1.65,1.9,2.91l1.28,19.31c0,0.86,0.78,1.54,1.62,1.37c6.29-1.34,9.99-10.76,13.66-20.59
	c0.45-1.21,1.59-2.03,2.89-2.03h13.86c1.13,0,2.05,1.01,1.84,2.13c-1.3,6.98-8.32,16.03-12,20.39c-1.27,1.51-1.28,3.7-0.01,5.21
	l12.39,14.75c0.89,1.06,0.14,2.68-1.25,2.68H69.01c-1.29,0-2.52-0.54-3.39-1.49l-10.96-9.13c-0.57-0.62-1.65-0.84-2.18-0.19
	c-1.36,1.65-1.25,3.69-1.9,8.32c-0.2,1.45-1.5,2.49-2.96,2.49H36.9c-1.52,0-3.03-0.32-4.41-0.97C26.33,43.9,9.53,33.57,0.07,4.62
	C-0.24,3.65,0.49,2.64,1.51,2.64z"/>
</svg>
