<svg version="1.1" id="logo-svg" class="position-absolute" xmlns="http://www.w3.org/2000/svg"
     xmlns:xlink="http://www.w3.org/1999/xlink" x="0px" y="0px"
     viewBox="0 0 598 90" style="enable-background:new 0 0 598 90;" xml:space="preserve">
<style type="text/css">
    .logo-svg-line11 {
        fill: none;
        stroke: url(#logo-svg-line11-gradient);
        stroke-width: 4;
        stroke-miterlimit: 10;
    }

    .logo-svg-line12 {
        fill: none;
        stroke: url(#logo-svg-line12-gradient);
        stroke-width: 4;
        stroke-miterlimit: 10;
    }

    .logo-svg-line21 {
        fill: none;
        stroke: url(#logo-svg-line21-gradient);
        stroke-width: 4;
        stroke-miterlimit: 10;
    }

    .logo-svg-line22 {
        fill: none;
        stroke: url(#logo-svg-line22-gradient);
        stroke-width: 4;
        stroke-miterlimit: 10;
    }
</style>
    <linearGradient id="logo-svg-line11-gradient" gradientUnits="userSpaceOnUse" x1="0" y1="4.7"
                    x2="300" y2="4.7">
                        <stop offset="0" style="stop-color:#00D9FF"/>
        <stop offset="1" style="stop-color:#1C5EFF"/>
                    </linearGradient>
    <path class="logo-svg-line11" d="M2,2.7V4c0,0.7,0.7,1.3,1.4,1.4h293.2c0.8,0,1.4-0.6,1.4-1.4V2.7"/>
    <linearGradient id="logo-svg-line12-gradient" gradientUnits="userSpaceOnUse" x1="0" y1="990.8"
                    x2="300" y2="990.8" gradientTransform="matrix(1 0 0 1 0 -988)">
                        <stop offset="0" style="stop-color:#00D9FF"/>
        <stop offset="1" style="stop-color:#1C5EFF"/>
                    </linearGradient>
    <path class="logo-svg-line12" d="M2,4.8V3.5c0-0.8,0.6-1.4,1.4-1.4h293.2c0.8,0,1.4,0.6,1.4,1.4v1.3"/>
    <linearGradient id="logo-svg-line21-gradient" gradientUnits="userSpaceOnUse" x1="598" y1="1075.4"
                    x2="275" y2="1075.4" gradientTransform="matrix(1 0 0 1 0 -988)">
                        <stop offset="0" style="stop-color:#FF67C8"/>
        <stop offset="1" style="stop-color:#FFBC52"/>
                    </linearGradient>
    <path class="logo-svg-line21"
          d="M596,85.4v1.3c0,0.8-0.7,1.4-1.5,1.4h-316c-0.8,0-1.5-0.6-1.5-1.4v-1.3"/>
    <linearGradient id="logo-svg-line22-gradient" gradientUnits="userSpaceOnUse" x1="598" y1="85.1"
                    x2="275" y2="85.1">
                        <stop offset="0" style="stop-color:#FF67C8"/>
        <stop offset="1" style="stop-color:#FFBC52"/>
                    </linearGradient>
    <path class="logo-svg-line22"
          d="M596,87.1v-1.3c0-0.8-0.7-1.4-1.5-1.4h-316c-0.8,0-1.5,0.6-1.5,1.4v1.3"/>
</svg>