<svg version="1.1"
                         xmlns="http://www.w3.org/2000/svg"
                         xmlns:xlink="http://www.w3.org/1999/xlink" x="0px" y="0px"
                         viewBox="0 0 667.41 520" style="enable-background:new 0 0 667.41 565;" xml:space="preserve">
<style type="text/css">
    .second-slide-circle1 {
        fill: url(#SVGID_1_);
    }

    .second-slide-circle2 {
        fill: url(#SVGID_2_);
    }

    .second-slide-circle3 {
        fill: url(#SVGID_3_);
    }

    .second-slide-freeform {
        fill: url(#SVGID_4_);
    }

    .second-slide-circle1 {
        animation: second-slide-circle1-anim 6s ease-in-out infinite;
    }
    @keyframes second-slide-circle1-anim {
        0%{}
        50%{
            transform: translateY(2.5%);
        }
        100%{
            transform: translateY(0);
        }
    }
    .second-slide-circle2 {
        animation: second-slide-circle2-anim 6s ease-in-out infinite;
    }
    @keyframes second-slide-circle2-anim {
        0%{}
        50%{
            transform: translateY(2.5%);
        }
        100%{
            transform: translateY(0);
        }
    }
    .second-slide-circle3 {
        animation: second-slide-circle3-anim 10s ease-in-out infinite;
    }
    @keyframes second-slide-circle3-anim {
        0%{}
        50%{
            transform: translateY(-2.5%);
        }
        100%{
            transform: translateY(0);
        }
    }

</style>
                        <linearGradient id="SVGID_1_" gradientUnits="userSpaceOnUse" x1="10.2827" y1="34.9681"
                                        x2="663.8527"
                                        y2="34.9681">
                            <stop offset="0" style="stop-color:#1C5EFF"/>
                            <stop offset="1" style="stop-color:#00D9FF"/>
                        </linearGradient>
                        <circle class="second-slide-circle1" cx="311.7" cy="34.97" r="27.29"/>
                        <linearGradient id="SVGID_2_" gradientUnits="userSpaceOnUse" x1="8.4742" y1="212.0638"
                                        x2="676.0734"
                                        y2="212.0638">
                            <stop offset="0" style="stop-color:#1C5EFF"/>
                            <stop offset="1" style="stop-color:#00D9FF"/>
                        </linearGradient>
                        <circle class="second-slide-circle2" cx="621" cy="212.06" r="46.4"/>
                        <linearGradient id="SVGID_3_" gradientUnits="userSpaceOnUse" x1="10.1145" y1="482.7021"
                                        x2="659.0797" y2="482.7021">
                            <stop offset="0" style="stop-color:#1C5EFF"/>
                            <stop offset="1" style="stop-color:#00D9FF"/>
                        </linearGradient>
                        <circle class="second-slide-circle3" cx="301.58" cy="482.7" r="17.81"/>
                        <linearGradient id="SVGID_4_" gradientUnits="userSpaceOnUse" x1="9.5085" y1="289.3762"
                                        x2="618.1961"
                                        y2="289.3762">
                            <stop offset="0" style="stop-color:#1C5EFF"/>
                            <stop offset="1" style="stop-color:#00D9FF"/>
                        </linearGradient>
                        <path class="second-slide-freeform" d="M0,273.4c-0.5-45.46,16.81-79.16,24.54-93.79c12.31-23.29,25.75-37.8,29.28-41.53
	c5.17-5.45,22.27-22.81,50.11-36.98c9.52-4.85,75.32-38.34,133.63-16.13c25.06,9.54,42.64,18.26,42.64,18.26
	c18.5,9.17,28.6,15.91,44.77,15.79c10.67-0.08,18.71-3.11,22.98-4.77c18.76-7.27,18.21-17.38,44.34-33.11
	c17.85-10.74,29.28-13.37,32.43-14.04c5.08-1.09,16.45-3.05,34.21-0.51c12.03,1.72,26.22,3.76,41.61,11.81
	c34.48,18.04,47.13,51.76,48.77,56.36c12.86,35.9,1.13,66.77,0.06,69.32c-0.62,1.46-3.18,7.15-4.1,15.16c0,0-1,8.71,0.98,17.73
	c3.81,17.43,21.26,34.51,26.38,39.83c0,0,24.17,25.1,34.13,66.3c9.19,38.03-4.4,71.4-8.94,82.13
	c-4.41,10.43-25.13,55.94-77.28,77.45c-54.12,22.32-110.58,5.8-133.62-13.28c-20.08-16.62-29.11-26.55-29.11-26.55
	c-11.23-12.36-13.9-18.31-24-24c-13.37-7.54-26.7-7.27-30.38-7.15c-5.54,0.18-10.57,1.14-31.66,8.94
	c-12.12,4.48-18.18,6.72-28.67,11.16c-28.09,11.88-62.84,7.28-76.78,5.44c-76-10.06-122.48-67.25-125.62-71.23
	C28.88,370.99,0.62,330.43,0,273.4z"/>
                        <image xlink:href="house.png" class="first-block-img" y="-5%" height="100%"
                               width="100%"/>
</svg>