<svg version="1.1"
     xmlns="http://www.w3.org/2000/svg"
     xmlns:xlink="http://www.w3.org/1999/xlink" x="0px" y="0px"
     viewBox="0 85 667.41 500" style="enable-background:new 0 0 667.41 565;" xml:space="preserve">
<style type="text/css">
    #first-slide {
        z-index: 1;
    }

    .first-slide-circle1 {
        fill: url(#SVGID_1_);
    }

    .first-slide-circle2 {
        fill: url(#SVGID_2_);
    }

    .first-slide-circle3 {
        fill: url(#SVGID_3_);
    }

    .first-slide-freeform {
        fill: url(#SVGID_4_);
    }

    .first-slide-circle1 {
        animation: first-slide-circle1-anim 6s ease-in-out infinite;
    }
    @keyframes first-slide-circle1-anim {
        0%{}
        50%{
            transform: scale(1.1) translateX(-2.5%) translateY(-2.5%);
        }
        100%{
            transform: scale(1.0);
        }

    }
    .first-slide-circle2 {
        animation: first-slide-circle2-anim 10s ease-in-out infinite;
    }
    @keyframes first-slide-circle2-anim {
        0%{}
        50%{
            transform: scale(1.2) translateX(-10%) translateY(0%);
        }
        100%{
            transform: scale(1.0);
        }

    }
    .first-slide-circle3 {
        animation: first-slide-circle3-anim 10s ease-in-out infinite;
    }
    @keyframes first-slide-circle3-anim {
        0%{}
        50%{
            transform: translateY(5%);
        }
        100%{
            transform: translateY(0%);
        }

    }
    .floating {
        animation: floating 5s infinite ease-in-out;
    }
    @keyframes floating {
        50% {
            transform: translateY(25px);
        }
        100% {
            transform: translateY(0);
        }
    }
</style>

    <linearGradient id="SVGID_1_" gradientUnits="userSpaceOnUse" x1="9.5473" y1="190.8731"
                    x2="656.6794"
                    y2="191.6186">
                            <stop offset="0" style="stop-color:#1C5EFF"/>
        <stop offset="1" style="stop-color:#00D9FF"/>
                        </linearGradient>
    <circle class="first-slide-circle1" cx="175.13" cy="191.06" r="32.55"/>
    <linearGradient id="SVGID_2_" gradientUnits="userSpaceOnUse" x1="115.9055" y1="105.9471"
                    x2="499.7999" y2="106.3894">
                            <stop offset="0" style="stop-color:#1C5EFF"/>
        <stop offset="1" style="stop-color:#00D9FF"/>
                        </linearGradient>
    <circle class="first-slide-circle2" cx="346.47" cy="106.21" r="18.77"/>
    <linearGradient id="SVGID_3_" gradientUnits="userSpaceOnUse" x1="263.9755" y1="359.0824"
                    x2="882.9072" y2="359.7954">
                            <stop offset="0" style="stop-color:#1C5EFF"/>
        <stop offset="1" style="stop-color:#00D9FF"/>
                        </linearGradient>
    <circle class="first-slide-circle3" cx="635.71" cy="359.51" r="30.26"/>
    <linearGradient id="SVGID_4_" gradientUnits="userSpaceOnUse" x1="13.5403" y1="314.7438"
                    x2="659.6304" y2="314.7438">
                            <stop offset="0" style="stop-color:#1C5EFF"/>
        <stop offset="1" style="stop-color:#00D9FF"/>
                        </linearGradient>
    <path class="first-slide-freeform" d="M3.77,370c1.76-25.44,9.96-44.36,14.38-53.28c2.87-5.78,15.98-31.22,44.77-52.51
	c24.87-18.39,52.79-27.29,71.23-28.34c10.76-0.61,19.91,0,19.91,0c13.69,0.92,16.49,3.02,26.81,3.06
	c12.37,0.06,21.73-2.9,24.51-3.83c2.46-0.83,13.86-4.8,26.04-15.32c11.92-10.29,11.32-15.39,22.21-26.04
	c8.7-8.5,16.68-12.68,27.57-18.38c10.34-5.41,27.9-14.4,52.85-17.62c3.99-0.51,33.94-4.18,53.62,3.06
	c1.68,0.62,6.69,2.57,13.79,3.83c2.31,0.41,12.06,2.03,19.91,0.77c11.22-1.81,18.4-9.48,26.81-18.38
	c20.83-22.04,31.25-33.06,33.7-35.23c29.89-26.45,79.42-15.67,84.26-14.55c5.27,1.22,50.86,12.57,73.53,57.45
	c26.69,52.82-1.64,106.04-13.02,120.26c-8.66,10.82-18.38,18.38-18.38,18.38c-10.49,8.16-13.56,7.29-21.45,13.79
	c-1.47,1.21-15.55,13.09-20.68,31.4c-4.15,14.81-0.62,27.3,0.77,33.7c8.41,38.89-13.34,80.07-18.38,89.62
	c-22.64,42.86-73.67,73.92-121.79,73.53c-42.38-0.34-85.21-25.11-88.09-26.81c-23.71-13.99-37.17-29.18-60.51-27.57
	c-9.78,0.67-19.29,5.05-38.3,13.79c-27.22,12.52-27.88,16.66-42.89,22.98c-39.59,16.65-78.87,6.26-87.32,3.83
	c-19.75-5.69-33.73-14.81-41.23-19.79c-8.16-5.41-20.84-13.97-33.06-29.23c-11.69-14.6-17.11-28.02-20.43-36.43
	C10.61,425.21,1.59,401.6,3.77,370z"/>
    <image xlink:href="house.png" class="first-block-img floating" y="10%" height="100%"
           width="100%"/>
</svg>