<svg version="1.1"
     xmlns="http://www.w3.org/2000/svg"
     xmlns:xlink="http://www.w3.org/1999/xlink" x="0px" y="0px"
     viewBox="0 0 667.41 565" style="enable-background:new 0 0 667.41 565; z-index: 2"
     xml:space="preserve">
<style type="text/css">
    .third-slide-circle1 {
        fill: url(#SVGID_1_);
    }

    .third-slide-circle2 {
        fill: url(#SVGID_2_);
    }

    .third-slide-circle3 {
        fill: url(#SVGID_3_);
    }

    .third-slide-freeform {
        fill: url(#SVGID_4_);
    }

    .third-slide-freeform {
        animation: third-slide-freeform-anim 12s ease-in-out infinite;
    }
    @keyframes third-slide-freeform-anim {
        0%{}
        50%{
            transform: translateY(-2.5%) translateX(-3%);
        }
        100%{
            transform:  translateY(0) translateX(0%);
        }
    }
    .third-slide-circle2 {
        animation: third-slide-circle2-anim 6s ease-in-out infinite;
    }
    @keyframes third-slide-circle2-anim {
        0%{}
        50%{
            transform: translateY(2.5%);
        }
        100%{
            transform: translateY(0);
        }
    }
    .third-slide-circle3 {
        animation: third-slide-circle3-anim 10s ease-in-out infinite;
    }
    @keyframes third-slide-circle3-anim {
        0%{}
        50%{
            transform: translateY(2.5%);
        }
        100%{
        }
    }
</style>
    <linearGradient id="SVGID_1_" gradientUnits="userSpaceOnUse" x1="0" y1="287.7969" x2="667.4087"
                    y2="287.7969">
                            <stop offset="0" style="stop-color:#1C5EFF"/>
        <stop offset="1" style="stop-color:#00D9FF"/>
                        </linearGradient>
    <path class="third-slide-circle1" d="M103.69,234c10.48-13.4-9.92-31.66-9-76c0.15-7.15,0.99-21.31,6-38c10.75-35.77,33.06-57.37,38-62
	c7.67-7.19,31.67-29.06,70-35c40.13-6.22,70.74,8.93,83,15c14.68,7.27,29.1,14.4,41,30c9.47,12.42,9.76,20.25,21,29
	c13.75,10.7,29.65,11.69,36,12c23.06,1.13,38.53-8.79,51-14c38.8-16.21,81.55-0.58,105,8c78.5,28.71,108.73,104.65,110,108
	c26.65,70.14,5.98,149.09-43,199c-37.32,38.03-103.66,72.02-145,56c-6.1-2.36-27.84-12.09-58-15c-17.49-1.69-26.05,0.05-32,2
	c-15.5,5.07-24.43,15.16-36,28c-23.54,26.13-38.1,42.29-44,48c-38.63,37.4-105.51,22.2-111,21c-34.42-7.55-87.58-32.63-95-71
	c-2.53-13.1-0.02-29.22-12-40c-8.1-7.29-16.01-6.01-26-9c-28.66-8.6-46.56-44.06-52-70c-0.46-2.21-9.81-50.46,21-87
	c3.63-4.31,14.96-17.46,34-26C82.38,235.48,95.7,244.21,103.69,234z"/>
    <linearGradient id="SVGID_2_" gradientUnits="userSpaceOnUse" x1="0.9237" y1="207.3735"
                    x2="659.6471"
                    y2="209.6714">
                            <stop offset="0" style="stop-color:#1C5EFF"/>
        <stop offset="1" style="stop-color:#00D9FF"/>
                        </linearGradient>
    <circle class="third-slide-circle2" cx="37.19" cy="207.5" r="20.5"/>
    <linearGradient id="SVGID_3_" gradientUnits="userSpaceOnUse" x1="0.8749" y1="33.04" x2="665.726"
                    y2="33.8059">
                            <stop offset="0" style="stop-color:#1C5EFF"/>
        <stop offset="1" style="stop-color:#00D9FF"/>
                        </linearGradient>
    <circle class="third-slide-circle3" cx="400.19" cy="33.5" r="32.5"/>
    <linearGradient id="SVGID_4_" gradientUnits="userSpaceOnUse" x1="0.1507" y1="528.5347"
                    x2="660.4061"
                    y2="530.0667">
                            <stop offset="0" style="stop-color:#1C5EFF"/>
        <stop offset="1" style="stop-color:#00D9FF"/>
                        </linearGradient>
    <circle class="third-slide-freeform" cx="416.19" cy="529.5" r="35.5"/>
    <image xlink:href="house.png" class="first-block-img" y="-5%" height="100%"
           width="100%"/>
</svg>