<svg version="1.1" class="position-absolute" id="curved2" style="z-index: 1; padding: 250px 150px 0 150px;"
     xmlns="http://www.w3.org/2000/svg"
     xmlns:xlink="http://www.w3.org/1999/xlink" x="0px" y="0px" viewBox="0 0 1493 659"
     xml:space="preserve">
<style type="text/css">
    .st0 {
        fill: none;
        stroke: #B3B3B3;
        stroke-width: 12;
        stroke-miterlimit: 10;
    }

    .st1 {
        fill: none;
        stroke: #F2F2F2;
        stroke-width: 19;
        stroke-miterlimit: 10;
    }

    .st2 {
        fill: none;
        stroke: #F2F2F2;
        stroke-width: 27;
        stroke-miterlimit: 10;
    }

    .st3 {
        fill: none;
        stroke: #F2F2F2;
        stroke-width: 30;
        stroke-miterlimit: 10;
    }

    .st4 {
        fill: none;
        stroke: #F2F2F2;
        stroke-width: 43;
        stroke-miterlimit: 10;
    }
</style>
    <path class="st0"
          d="M1484.3,0C1483.8,3.8000000000000007 1484.1,9.3 1483.3,16C1481.7,29 1480.8,35.5 1480.3,39C1479,47.4 1477.7,57 1474.3,69C1470.3,83 1467.3,87.9 1465.3,93C1463.6,97.3 1464.1,95.9 1455.3,116C1448.8,130.8 1446.8999999999999,133.1 1444.3,137C1441.2,141.6 1441.2,142 1434.3,151C1428.3999999999999,158.6 1425.8999999999999,162.8 1423.3,166C1414.3,177 1407,183.3 1393.3,194C1381.6,203.1 1370.8999999999999,210 1362.3,215C1354.2,219.7 1352.8999999999999,220 1324.3,234C1296.8,247.5 1296.3,246.6 1290.3,249C1281,252.6 1270.5,255.7 1248.3,262C1227.3,268 1219.8999999999999,268.9 1201.3,273C1188.3999999999999,275.8 1176,278.7 1159.3,282C1141.3,285.6 1130.7,287.2 1116.3,289C1092.3,292 1072.8,294.5 1054.3,296C1047.3999999999999,296.6 1034.7,298.4 1009.3,300C981.9,301.7 968,302.6 958.3,303C936.9,303.8 937,304.2 908.3,305C884.1999999999999,305.7 883.4,305.1 855.3,306C835.5,306.6 822.5999999999999,307 805.3,307C777.9,307 776.9,307 753.3,307C736.0999999999999,307 731.3,307 693.3,308C682.3,308.3 657,308.4 633.3,309C603.1999999999999,309.8 600.8,310.1 547.3,311C488.3,312 483.3,313 468.3,314C451.2,315.1 448.3,315 402.3,320C322.5,328.7 316.40000000000003,328.4 287.3,334C286.90000000000003,334.1 267,337.7 227.3,347C195,354.5 179.60000000000002,360.4 164.3,367C146.4,374.7 131.4,382.4 122.3,388C113.4,393.6 101.39999999999999,401.1 87.3,413C78.5,420.4 67.8,429.6 56.3,444C40.1,464.3 32.1,483.1 29.3,490C22.5,506.8 20.1,520.3 17.3,536C14.5,551.5 13.5,563.8 12.3,579C11.200000000000001,592.6 10.8,602.8 10.3,616C9.700000000000001,632 9.4,646.4 9.3,659"/>
    <path class="st1"
          d="M1468.3,53.2c0-5.1,4.1-9.3,9.3-9.3s9.3,4.1,9.3,9.3s-4.1,9.3-9.3,9.3S1468.3,58.4,1468.3,53.2z"/>
    <path class="st2"
          d="M1446.8,108c0-7.5,6-13.5,13.5-13.5s13.5,6,13.5,13.5c0,7.5-6,13.5-13.5,13.5S1446.8,115.5,1446.8,108z"/>
    <path class="st3"
          d="M1409.8,165.5c0-8.3,6.7-15,15-15s15,6.7,15,15s-6.7,15-15,15S1409.8,173.8,1409.8,165.5z"/>
    <path class="st4" d="M1325.3,224.5c0-11.9,9.6-21.5,21.5-21.5s21.5,9.6,21.5,21.5c0,11.9-9.6,21.5-21.5,21.5
	S1325.3,236.4,1325.3,224.5z"/>
    <path class="st1"
          d="M970.3,301.7c0-5.1,4.1-9.3,9.3-9.3s9.3,4.1,9.3,9.3c0,5.1-4.1,9.3-9.3,9.3S970.3,306.8,970.3,301.7z"/>
    <path class="st2" d="M901.8,306c0-7.5,6-13.5,13.5-13.5c7.5,0,13.5,6,13.5,13.5s-6,13.5-13.5,13.5
	C907.8,319.5,901.8,313.5,901.8,306z"/>
    <path class="st3"
          d="M832.3,307c0-8.3,6.7-15,15-15c8.3,0,15,6.7,15,15s-6.7,15-15,15C839,322,832.3,315.3,832.3,307z"/>
    <path class="st4" d="M725.8,311c0-11.9,9.6-21.5,21.5-21.5c11.9,0,21.5,9.6,21.5,21.5s-9.6,21.5-21.5,21.5
	C735.4,332.5,725.8,322.9,725.8,311z"/>
    <path class="st1" d="M228.1,345.9c0-5.1,4.1-9.3,9.3-9.3c5.1,0,9.3,4.1,9.3,9.3s-4.1,9.3-9.3,9.3C232.2,355.1,228.1,351,228.1,345.9
	z"/>
    <path class="st2"
          d="M161.8,365c0-7.5,6-13.5,13.5-13.5s13.5,6,13.5,13.5s-6,13.5-13.5,13.5S161.8,372.5,161.8,365z"/>
    <path class="st3" d="M99.3,393c0-8.3,6.7-15,15-15s15,6.7,15,15s-6.7,15-15,15S99.3,401.3,99.3,393z"/>
    <path class="st4"
          d="M26.8,455c0-11.9,9.6-21.5,21.5-21.5s21.5,9.6,21.5,21.5s-9.6,21.5-21.5,21.5S26.8,466.9,26.8,455z"/>
</svg>