<svg version="1.1" class="col-5" id="about_us_2" xmlns="http://www.w3.org/2000/svg"
     xmlns:xlink="http://www.w3.org/1999/xlink" x="0px" y="0px"
     viewBox="0 0 667.4 565" style="enable-background:new 0 0 667.4 565;" xml:space="preserve">
<style type="text/css">
    #about_us_2{z-index:2;}
    .about_us_2_circle2{fill:url(#about_us_2_circle2_gradient);}
    .about_us_2_circle3{fill:url(#about_us_2_circle3_gradient);}
    .about_us_2_freeform{fill:url(#about_us_2_freeform_gradient);}
    .about_us_2_circle4{fill:url(#about_us_2_circle4_gradient);}
    .about_us_2_letter{fill:#FFFFFF;}
    .about_us_2_white_cross{fill:none;stroke:#FFFFFF;stroke-width:4;stroke-miterlimit:10;}
    .about_us_2_cross2_1{fill:none;stroke:url(#about_us_2_cross2_1_gradient);stroke-width:10;stroke-miterlimit:10;}
    .about_us_2_cross2_2{fill:none;stroke:url(#about_us_2_cross2_2_gradient);stroke-width:10;stroke-miterlimit:10;}
    .about_us_2_cross2_3{fill:none;stroke:url(#about_us_2_cross2_3_gradient);stroke-width:10;stroke-miterlimit:10;}
    .about_us_2_cross2_4{fill:none;stroke:url(#about_us_2_cross2_4_gradient);stroke-width:10;stroke-miterlimit:10;}
    .about_us_2_cross2_5{fill:none;stroke:url(#about_us_2_cross2_5_gradient);stroke-width:10;stroke-miterlimit:10;}
    .about_us_2_cross2_6{fill:none;stroke:url(#about_us_2_cross2_6_gradient);stroke-width:10;stroke-miterlimit:10;}
    .about_us_2_cross2_7{fill:none;stroke:url(#about_us_2_cross2_7_gradient);stroke-width:10;stroke-miterlimit:10;}
    .about_us_2_cross2_8{fill:none;stroke:url(#about_us_2_cross2_8_gradient);stroke-width:10;stroke-miterlimit:10;}
    .about_us_2_cross1_1{fill:none;stroke:url(#about_us_2_cross1_1_gradient);stroke-width:10;stroke-miterlimit:10;}
    .about_us_2_cross1_2{fill:none;stroke:url(#about_us_2_cross1_2_gradient);stroke-width:10;stroke-miterlimit:10;}
    .about_us_2_cross1_3{fill:none;stroke:url(#about_us_2_cross1_3_gradient);stroke-width:10;stroke-miterlimit:10;}
    .about_us_2_cross1_4{fill:none;stroke:url(#about_us_2_cross1_4_gradient);stroke-width:10;stroke-miterlimit:10;}
    .about_us_2_cross1_5{fill:none;stroke:url(#about_us_2_cross1_5_gradient);stroke-width:10;stroke-miterlimit:10;}
    .about_us_2_cross1_6{fill:none;stroke:url(#about_us_2_cross1_6_gradient);stroke-width:10;stroke-miterlimit:10;}
    .about_us_2_cross1_7{fill:none;stroke:url(#about_us_2_cross1_7_gradient);stroke-width:10;stroke-miterlimit:10;}
    .about_us_2_cross1_8{fill:none;stroke:url(#about_us_2_cross1_8_gradient);stroke-width:10;stroke-miterlimit:10;}
    .about_us_2_cross3_1{fill:none;stroke:url(#about_us_2_cross3_1_gradient);stroke-width:4;stroke-miterlimit:10;}
    .about_us_2_cross3_2{fill:none;stroke:url(#about_us_2_cross3_2_gradient);stroke-width:4;stroke-miterlimit:10;}
    .about_us_2_cross3_3{fill:none;stroke:url(#about_us_2_cross3_3_gradient);stroke-width:4;stroke-miterlimit:10;}
    .about_us_2_cross3_4{fill:none;stroke:url(#about_us_2_cross3_4_gradient);stroke-width:4;stroke-miterlimit:10;}
    .about_us_2_cross3_5{fill:none;stroke:url(#about_us_2_cross3_5_gradient);stroke-width:4;stroke-miterlimit:10;}
    .about_us_2_cross3_6{fill:none;stroke:url(#about_us_2_cross3_6_gradient);stroke-width:4;stroke-miterlimit:10;}
    .about_us_2_cross3_7{fill:none;stroke:url(#about_us_2_cross3_7_gradient);stroke-width:4;stroke-miterlimit:10;}
    .about_us_2_cross3_8{fill:none;stroke:url(#about_us_2_cross3_8_gradient);stroke-width:4;stroke-miterlimit:10;}

    #about_us_2_text {
        transform-box: fill-box;
        transform-origin: center;
        transform: scale(1.1);
        transition: 0.5s;
    }
    #about_us_2:hover > #about_us_2_text {
        transform-box: fill-box;
        transform-origin: center;
        transform: scale(1.4);
        transition: 0.5s;
    }
    .about_us_2_freeform {
        transform-box: fill-box;
        transform-origin: center;
        transform: scale(0.98);
        transition: 0.5s;
    }
    #about_us_2:hover > .about_us_2_freeform {
        transform-box: fill-box;
        transform-origin: center;
        transform: scale(1);
        transition: 0.5s;
    }
    #about_us_2_white_cross1 {
        transform: scale(0.75);
        transform-box: fill-box;
        transform-origin: center;
        animation: about_us_2_white_cross1_scaling 5s infinite;
    }
    @keyframes about_us_2_white_cross1_scaling {
        0% {transform: scale(0.75)}
        50%{transform: scale(1.2)}
        100% {transform: scale(0.75)}
    }
    #about_us_2_white_cross2 {
        transform: scale(0.75);
        transform-box: fill-box;
        transform-origin: center;
        animation: about_us_2_white_cross2_scaling 4s infinite;
    }
    @keyframes about_us_2_white_cross2_scaling {
        0% {transform: scale(0.75)}
        50%{transform: scale(1.2)}
        100% {transform: scale(0.75)}
    }

    #about_us_2_cross1 {
        transform: scale(1);
        transform-box: fill-box;
        transform-origin: center;
        animation: about_us_2_cross1_scaling 8s infinite;
    }
    @keyframes about_us_2_cross1_scaling {
        0% {transform: scale(1)}
        50%{transform: scale(0.8)}
        100% {transform: scale(1)}
    }

    #about_us_2_cross2 {
        transform: scale(1);
        transform-box: fill-box;
        transform-origin: center;
        animation: about_us_2_cross2_scaling 6s infinite;
    }
    @keyframes about_us_2_cross2_scaling {
        0% {transform: scale(1)}
        50%{transform: scale(1.2)}
        100% {transform: scale(1)}
    }
    #about_us_2_cross3 {
        transform: scale(1);
        transform-box: fill-box;
        transform-origin: center;
        animation: about_us_2_cross3_scaling 10s infinite;
    }
    @keyframes about_us_2_cross3_scaling {
        0% {transform: scale(1)}
        50%{transform: scale(2)}
        100% {transform: scale(1)}
    }


    .about_us_2_circle4 {
        animation: about_us_2_circle4_flying 6s infinite;
    }
    @keyframes about_us_2_circle4_flying {
        0% {transform: translateY(0)}
        50% {transform: translateY(10px)}
        100% {transform: translateY(0)}
    }
    .about_us_2_circle2 {
        animation: about_us_1_circle2_flying 8s infinite;
    }
    @keyframes about_us_2_circle2_flying {
        0% {transform: translateY(0)}
        50% {transform: translateY(15px)}
        100% {transform: translateY(0)}
    }
    .about_us_2_circle3 {
        animation: about_us_2_circle3_flying 7s infinite;
    }
    @keyframes about_us_2_circle3_flying {
        0% {transform: translateY(-15px)}
        50% {transform: translateY(0px)}
        100% {transform: translateY(-15px)}
    }
</style>
    <linearGradient id="about_us_2_circle2_gradient" gradientUnits="userSpaceOnUse" x1="115.9055" y1="460.0501"
                    x2="499.8" y2="459.6078" gradientTransform="matrix(1 0 0 -1 0 566)">
                    <stop offset="0" style="stop-color:#FF66C8"/>
        <stop offset="1" style="stop-color:#FFBD53"/>
                </linearGradient>
    <circle class="about_us_2_circle2" cx="346.5" cy="106.2" r="18.8"/>
    <linearGradient id="about_us_2_circle3_gradient" gradientUnits="userSpaceOnUse" x1="5.8535" y1="207.2102"
                    x2="661.3632" y2="206.455" gradientTransform="matrix(1 0 0 -1 0 566)">
                    <stop offset="0" style="stop-color:#FFB756"/>
        <stop offset="1" style="stop-color:#FFBB4E"/>
                </linearGradient>
    <circle class="about_us_2_circle3" cx="635.7" cy="359.5" r="30.3"/>
    <linearGradient id="about_us_2_freeform_gradient" gradientUnits="userSpaceOnUse" x1="11.0199" y1="257.9361"
                    x2="657.11" y2="257.9361" gradientTransform="matrix(1 0 0 -1 0 566)">
                    <stop offset="0" style="stop-color:#FF66C8"/>
        <stop offset="1" style="stop-color:#FFBD53"/>
                </linearGradient>
    <path class="about_us_2_freeform" d="M1.2,363.3C3,337.9,11.2,319,15.6,310c2.9-5.8,16-31.2,44.8-52.5c24.9-18.4,52.8-27.3,71.2-28.3
	c10.8-0.6,19.9,0,19.9,0c13.7,0.9,16.5,3,26.8,3.1c12.4,0.1,21.7-2.9,24.5-3.8c2.5-0.8,13.9-4.8,26-15.3c11.9-10.3,13.4-14,22.2-26
	c8.2-11.1,20.3-20.1,31.2-25.8c10.3-5.4,17.4-8,42.3-11.2c4-0.5,19.2-3.1,60.4,4.8c7.4,1.4,6.9,1.8,14,3.1c2.3,0.4,12.1,2,19.9,0.8
	c11.2-1.8,18.4-9.5,26.8-18.4c20.8-22,31.3-33.1,33.7-35.2c29.9-26.4,79.4-15.7,84.3-14.6c5.3,1.2,50.9,12.6,73.5,57.4
	c26.7,52.8-1.6,106-13,120.3c-8.7,10.8-18.4,18.4-18.4,18.4c-10.5,8.2-13.6,7.3-21.5,13.8c-1.5,1.2-15.5,13.1-20.7,31.4
	c-4.2,14.8-0.6,27.3,0.8,33.7c8.4,38.9-13.3,80.1-18.4,89.6c-22.6,42.9-73.7,73.9-121.8,73.5c-42.4-0.3-85.2-25.1-88.1-26.8
	c-23.7-14-37.2-29.2-60.5-27.6c-9.8,0.7-19.3,5-38.3,13.8c-27.2,12.5-27.9,16.7-42.9,23c-39.6,16.7-78.9,6.3-87.3,3.8
	c-19.8-5.7-33.7-14.8-41.2-19.8c-8.2-5.4-20.8-14-33.1-29.2c-11.7-14.6-17.1-28-20.4-36.4C8.1,418.5-0.9,394.9,1.2,363.3z"/>
    <linearGradient id="about_us_2_circle4_gradient" gradientUnits="userSpaceOnUse" x1="-184.4439" y1="376.1601"
                    x2="423.9242" y2="375.4592" gradientTransform="matrix(1 0 0 -1 0 566)">
                    <stop offset="0" style="stop-color:#FF79B3"/>
        <stop offset="1" style="stop-color:#FF82A7"/>
                </linearGradient>
    <circle class="about_us_2_circle4" cx="180.9" cy="190.3" r="29.7"/>
    <g id="about_us_2_text">
                    <path class="about_us_2_letter"
                          d="M246.2,300.9v49.9h25.6v-49.9h7.3v50l4.9,0.2l-0.5,19.2h-5.7l-0.5-13.4H239v-55.9H246.2z"/>
        <path class="about_us_2_letter" d="M322.1,330.6h-21.7v20.2h24.2v6.1h-31.5v-55.9h30.2v6.1h-23v17.7h21.7V330.6z"/>
        <path class="about_us_2_letter" d="M372.9,300.9v55.9h-7.3v-49.9h-18.5v16.9c0,12.1-0.5,25.6-8.4,31c-2.1,1.3-5.3,2.7-8.5,2.7l-0.9-5.8
		c2.2-0.4,4.6-1.7,5.9-3c4.5-4.4,4.9-15.3,4.9-24.2v-23.6H372.9z"/>
        <path class="about_us_2_letter" d="M392.6,300.9v20.9c1.7-0.2,5-0.4,6.9-0.4c11.5,0,21.6,5.1,21.6,17.4c0,5.2-1.7,9-4.3,12
		c-4.6,4.8-12.4,6.6-20.1,6.6c-5.1,0-8.9-0.3-11.3-0.7v-55.8H392.6z M392.6,351.2c1.7,0.3,3.5,0.4,6,0.4c8.1,0,14.9-3.9,14.9-12.4
		c0-8.8-7.1-12.1-15-12.1c-1.8,0-4.1,0.2-5.9,0.4V351.2z"/>
                </g>
    <g id="about_us_2_white_cross1">
                    <path class="about_us_2_white_cross" d="M416.1,223.1H393c-0.6,0-1.1-0.5-1.1-1.2l0,0"/>
        <path class="about_us_2_white_cross" d="M416.1,221H393c-0.6,0-1.1,0.5-1.1,1.2l0,0"/>
        <path class="about_us_2_white_cross" d="M414,223.1v-23.4c0-0.6,0.5-1.1,1.2-1.1l0,0"/>
        <path class="about_us_2_white_cross" d="M416.1,223.1v-23.4c0-0.6-0.5-1.1-1.2-1.1l0,0"/>
        <path class="about_us_2_white_cross" d="M416.1,221v23.4c0,0.6-0.5,1.1-1.1,1.1l0,0"/>
        <path class="about_us_2_white_cross" d="M414,221v23.4c0,0.6,0.6,1.1,1.2,1.1l0,0"/>
        <path class="about_us_2_white_cross" d="M414,223.1h23c0.5,0,0.9-0.5,0.9-1.2l0,0"/>
        <path class="about_us_2_white_cross" d="M414,221h23c0.5,0,0.9,0.5,0.9,1.2l0,0"/>
                </g>
    <g id="about_us_2_white_cross2">
                    <path class="about_us_2_white_cross" d="M187.3,423.3h-23.1c-0.6,0-1.1-0.5-1.1-1.2l0,0"/>
        <path class="about_us_2_white_cross" d="M187.3,421.2h-23.1c-0.6,0-1.1,0.5-1.1,1.2l0,0"/>
        <path class="about_us_2_white_cross" d="M185.2,423.3v-23.4c0-0.6,0.5-1.1,1.2-1.1h0"/>
        <path class="about_us_2_white_cross" d="M187.3,423.3v-23.4c0-0.6-0.5-1.1-1.2-1.1l0,0"/>
        <path class="about_us_2_white_cross" d="M187.3,421.2v23.4c0,0.6-0.5,1.1-1.1,1.1h0"/>
        <path class="about_us_2_white_cross" d="M185.2,421.2v23.4c0,0.6,0.6,1.1,1.2,1.1l0,0"/>
        <path class="about_us_2_white_cross" d="M185.2,423.3h23c0.5,0,0.9-0.5,0.9-1.2l0,0"/>
        <path class="about_us_2_white_cross" d="M185.2,421.2h23c0.5-0.1,0.9,0.4,0.9,1.1l0,0"/>
                </g>
    <g id="about_us_2_cross1">
                    <linearGradient id="about_us_2_cross2_1_gradient" gradientUnits="userSpaceOnUse" x1="477.2094"
                                    y1="120.1526" x2="556.0019" y2="120.1526">
                        <stop offset="0" style="stop-color:#1C5EFF"/>
                        <stop offset="1" style="stop-color:#00A4FF"/>
                    </linearGradient>
        <path class="about_us_2_cross2_1" d="M556,120.2h-70.6c-1.8,0-3.2-1.6-3.2-3.6v0"/>
        <linearGradient id="about_us_2_cross2_2_gradient" gradientUnits="userSpaceOnUse" x1="477.2094" y1="113.7103"
                        x2="556.0019" y2="113.7103">
                        <stop offset="0" style="stop-color:#1C5EFF"/>
            <stop offset="1" style="stop-color:#00A4FF"/>
                    </linearGradient>
        <path class="about_us_2_cross2_2" d="M556,113.7h-70.6c-1.8,0-3.2,1.6-3.2,3.6v0"/>

        <linearGradient id="about_us_2_cross2_3_gradient" gradientUnits="userSpaceOnUse" x1="-282.9524" y1="-54.2942"
                        x2="-282.9524" y2="-64.2942" gradientTransform="matrix(0 1 -1 0 490.2654 363.7087)">
                        <stop offset="0" style="stop-color:#009BFF"/>
            <stop offset="1" style="stop-color:#00AAFF"/>
                    </linearGradient>
        <path class="about_us_2_cross2_3" d="M549.6,120.2V49.6c0-1.8,1.6-3.2,3.7-3.2l0,0"/>

        <linearGradient id="about_us_2_cross2_4_gradient" gradientUnits="userSpaceOnUse" x1="-282.9524" y1="-60.7365"
                        x2="-282.9524" y2="-70.7365" gradientTransform="matrix(0 1 -1 0 490.2654 363.7087)">
                        <stop offset="0" style="stop-color:#00A6FF"/>
            <stop offset="1" style="stop-color:#00AEFF"/>
                    </linearGradient>
        <path class="about_us_2_cross2_4" d="M556,120.2V49.6c0-1.8-1.6-3.2-3.5-3.2l0,0"/>

        <linearGradient id="about_us_2_cross2_5_gradient" gradientUnits="userSpaceOnUse" x1="391.3318" y1="966.4128"
                        x2="391.3318" y2="976.4128" gradientTransform="matrix(0 -1 1 0 -415.4109 544.4383)">
                        <stop offset="0" style="stop-color:#00A9FF"/>
            <stop offset="1" style="stop-color:#00AAFF"/>
                    </linearGradient>
        <path class="about_us_2_cross2_5" d="M556,113.7v70.6c0,1.8-1.5,3.2-3.4,3.2h0"/>

        <linearGradient id="about_us_2_cross2_6_gradient" gradientUnits="userSpaceOnUse" x1="391.3318" y1="959.9705"
                        x2="391.3318" y2="969.9705" gradientTransform="matrix(0 -1 1 0 -415.4109 544.4383)">
                        <stop offset="0" style="stop-color:#009BFF"/>
            <stop offset="1" style="stop-color:#00AAFF"/>
                    </linearGradient>
        <path class="about_us_2_cross2_6" d="M549.6,113.7v70.6c0,1.8,1.7,3.2,3.8,3.2l0,0"/>

        <linearGradient id="about_us_2_cross2_7_gradient" gradientUnits="userSpaceOnUse" x1="-415.0686" y1="120.1431"
                        x2="-346.5261" y2="120.1431" gradientTransform="matrix(-1 0 0 1 213.5854 0)">
                        <stop offset="0" style="stop-color:#00D9FF"/>
            <stop offset="1" style="stop-color:#00ACFF"/>
                    </linearGradient>
        <path class="about_us_2_cross2_7" d="M549.6,120.2h71.3c1.6,0,2.8-1.6,2.8-3.6l0,0"/>

        <linearGradient id="about_us_2_cross2_8_gradient" gradientUnits="userSpaceOnUse" x1="-415.0686" y1="113.7009"
                        x2="-346.5261" y2="113.7009" gradientTransform="matrix(-1 0 0 1 213.5854 0)">
                        <stop offset="0" style="stop-color:#00D9FF"/>
            <stop offset="1" style="stop-color:#00ACFF"/>
                    </linearGradient>
        <path class="about_us_2_cross2_8" d="M549.6,113.7h71.3c1.6,0,2.8,1.6,2.8,3.6l0,0"/>
                </g>
    <g id="about_us_2_cross2">
                    <linearGradient id="about_us_2_cross1_1_gradient" gradientUnits="userSpaceOnUse" x1="16.2897"
                                    y1="472.0275" x2="91.6906" y2="472.0275">
                        <stop offset="0" style="stop-color:#1C5EFF"/>
                        <stop offset="1" style="stop-color:#00A4FF"/>
                    </linearGradient>
        <path class="about_us_2_cross1_1" d="M91.7,472H24.4c-1.7,0-3.1-1.5-3.1-3.5v0"/>
        <linearGradient id="about_us_2_cross1_2_gradient" gradientUnits="userSpaceOnUse" x1="16.2897" y1="465.8161"
                        x2="91.6906" y2="465.8161">
                        <stop offset="0" style="stop-color:#1C5EFF"/>
            <stop offset="1" style="stop-color:#00A4FF"/>
                    </linearGradient>
        <path class="about_us_2_cross1_2" d="M91.7,465.8H24.4c-1.7,0-3.1,1.5-3.1,3.4l0,0"/>

        <linearGradient id="about_us_2_cross1_3_gradient" gradientUnits="userSpaceOnUse" x1="70.245" y1="409.721"
                        x2="70.245" y2="399.721" gradientTransform="matrix(0 1 -1 0 490.2654 363.7087)">
                        <stop offset="0" style="stop-color:#009BFF"/>
            <stop offset="1" style="stop-color:#00AAFF"/>
                    </linearGradient>
        <path class="about_us_2_cross1_3" d="M85.5,472v-68c0-1.7,1.6-3.1,3.5-3.1h0"/>

        <linearGradient id="about_us_2_cross1_4_gradient" gradientUnits="userSpaceOnUse" x1="70.245" y1="403.5748"
                        x2="70.245" y2="393.5748" gradientTransform="matrix(0 1 -1 0 490.2654 363.7087)">
                        <stop offset="0" style="stop-color:#00A6FF"/>
            <stop offset="1" style="stop-color:#00AEFF"/>
                    </linearGradient>
        <path class="about_us_2_cross1_4" d="M91.7,472v-68c0-1.7-1.5-3.1-3.4-3.1h0"/>

        <linearGradient id="about_us_2_cross1_5_gradient" gradientUnits="userSpaceOnUse" x1="40.5485" y1="502.1015"
                        x2="40.5485" y2="512.1015" gradientTransform="matrix(0 -1 1 0 -415.4109 544.4383)">
                        <stop offset="0" style="stop-color:#00A9FF"/>
            <stop offset="1" style="stop-color:#00AAFF"/>
                    </linearGradient>
        <path class="about_us_2_cross1_5" d="M91.7,465.8v68c0,1.7-1.5,3.1-3.3,3.1l0,0"/>

        <linearGradient id="about_us_2_cross1_6_gradient" gradientUnits="userSpaceOnUse" x1="40.5485" y1="495.9553"
                        x2="40.5485" y2="505.9553" gradientTransform="matrix(0 -1 1 0 -415.4109 544.4383)">
                        <stop offset="0" style="stop-color:#009BFF"/>
            <stop offset="1" style="stop-color:#00AAFF"/>
                    </linearGradient>
        <path class="about_us_2_cross1_6" d="M85.5,465.8v68c0,1.7,1.6,3.1,3.6,3.1h0"/>

        <linearGradient id="about_us_2_cross1_7_gradient" gradientUnits="userSpaceOnUse" x1="52.3519" y1="472.0184"
                        x2="117.9741" y2="472.0184" gradientTransform="matrix(-1 0 0 1 213.5854 0)">
            <stop offset="0" style="stop-color:#00D9FF"/>
            <stop offset="1" style="stop-color:#00ACFF"/>
        </linearGradient>
        <path class="about_us_2_cross1_7" d="M85.5,465.8h68.1c1.4,0,2.6,1.5,2.6,3.4l0,0"/>

        <linearGradient id="about_us_2_cross1_8_gradient" gradientUnits="userSpaceOnUse" x1="52.3519" y1="465.807"
                        x2="117.9741" y2="465.807" gradientTransform="matrix(-1 0 0 1 213.5854 0)">
            <stop offset="0" style="stop-color:#00D9FF"/>
            <stop offset="1" style="stop-color:#00ACFF"/>
        </linearGradient>
        <path class="about_us_2_cross1_8" d="M85.5,472h68.1c1.4,0,2.6-1.6,2.6-3.5l0,0"/>
    </g>
    <g id="about_us_2_cross3">
                    <linearGradient id="about_us_2_cross3_1_gradient" gradientUnits="userSpaceOnUse" x1="476.4872"
                                    y1="459.3804" x2="504.5366" y2="459.3804">
                        <stop offset="0" style="stop-color:#1C5EFF"/>
                        <stop offset="1" style="stop-color:#00A4FF"/>
                    </linearGradient>
        <path class="about_us_2_cross3_1" d="M504.5,459.4h-24.9c-0.6,0-1.1-0.6-1.1-1.3l0,0"/>
        <linearGradient id="about_us_2_cross3_2_gradient" gradientUnits="userSpaceOnUse" x1="476.4872" y1="457.0559"
                        x2="504.5366" y2="457.0559">
                        <stop offset="0" style="stop-color:#1C5EFF"/>
            <stop offset="1" style="stop-color:#00A4FF"/>
                    </linearGradient>
        <path class="about_us_2_cross3_2" d="M504.5,457.1h-24.9c-0.6,0-1.1,0.6-1.1,1.3l0,0"/>

        <linearGradient id="about_us_2_cross3_3_gradient" gradientUnits="userSpaceOnUse" x1="81.3588" y1="-9.997"
                        x2="81.3588" y2="-13.997" gradientTransform="matrix(0 1 -1 0 490.2654 363.7087)">
                        <stop offset="0" style="stop-color:#009BFF"/>
            <stop offset="1" style="stop-color:#00AAFF"/>
                    </linearGradient>
        <path class="about_us_2_cross3_3" d="M502.3,459.4v-25.5c0-0.6,0.6-1.2,1.3-1.2h0"/>

        <linearGradient id="about_us_2_cross3_4_gradient" gradientUnits="userSpaceOnUse" x1="81.3588" y1="-12.2712"
                        x2="81.3588" y2="-16.2712" gradientTransform="matrix(0 1 -1 0 490.2654 363.7087)">
                        <stop offset="0" style="stop-color:#00A6FF"/>
            <stop offset="1" style="stop-color:#00AEFF"/>
                    </linearGradient>
        <path class="about_us_2_cross3_4" d="M504.5,459.4v-25.5c0-0.6-0.6-1.2-1.2-1.2l0,0"/>

        <linearGradient id="about_us_2_cross3_5_gradient" gradientUnits="userSpaceOnUse" x1="73.0695" y1="917.9474"
                        x2="73.0695" y2="921.9474" gradientTransform="matrix(0 -1 1 0 -415.4109 544.4383)">
                        <stop offset="0" style="stop-color:#00A9FF"/>
            <stop offset="1" style="stop-color:#00AAFF"/>
                    </linearGradient>
        <path class="about_us_2_cross3_5" d="M504.5,457.1v25.5c0,0.6-0.5,1.2-1.2,1.2l0,0"/>

        <linearGradient id="about_us_2_cross3_6_gradient" gradientUnits="userSpaceOnUse" x1="73.0695" y1="915.6733"
                        x2="73.0695" y2="919.6733" gradientTransform="matrix(0 -1 1 0 -415.4109 544.4383)">
                        <stop offset="0" style="stop-color:#009BFF"/>
            <stop offset="1" style="stop-color:#00AAFF"/>
                    </linearGradient>
        <path class="about_us_2_cross3_6" d="M502.3,457.1v25.5c0,0.6,0.6,1.2,1.3,1.2l0,0"/>

        <linearGradient id="about_us_2_cross3_7_gradient" gradientUnits="userSpaceOnUse" x1="-316.833" y1="459.377"
                        x2="-292.4019" y2="459.377" gradientTransform="matrix(-1 0 0 1 213.5854 0)">
                        <stop offset="0" style="stop-color:#00D9FF"/>
            <stop offset="1" style="stop-color:#00ACFF"/>
                    </linearGradient>
        <path class="about_us_2_cross3_7" d="M502.3,459.4h25.1c0.6,0,1-0.6,1-1.3l0,0"/>

        <linearGradient id="about_us_2_cross3_8_gradient" gradientUnits="userSpaceOnUse" x1="-316.833" y1="457.0525"
                        x2="-292.4019" y2="457.0525" gradientTransform="matrix(-1 0 0 1 213.5854 0)">
                        <stop offset="0" style="stop-color:#00D9FF"/>
            <stop offset="1" style="stop-color:#00ACFF"/>
                    </linearGradient>
        <path class="about_us_2_cross3_8" d="M502.3,457.1h25.1c0.6,0,1,0.6,1,1.3l0,0"/>
                </g>
</svg>