<svg version="1.1" class="col-5" id="about_us_3" xmlns="http://www.w3.org/2000/svg"
     xmlns:xlink="http://www.w3.org/1999/xlink" x="0px" y="0px"
     viewBox="0 0 667.4 565" style="enable-background:new 0 0 667.4 565;" xml:space="preserve">
<style type="text/css">
    #about_us_3{z-index:2;}
    .about_us_3_circle1{fill:url(#about_us_3_circle1_gradient);}
    .about_us_3_circle2{fill:url(#about_us_3_circle2_gradient);}
    .about_us_3_circle3{fill:url(#about_us_3_circle3_gradient);}
    .about_us_3_freeform{fill:url(#about_us_3_freeform_gradient);}
    .about_us_3_letter{fill:#FFFFFF;}
    .about_us_3_cross1_1{fill:none;stroke:url(#about_us_3_cross1_1_gradient);stroke-width:11;stroke-miterlimit:10;}
    .about_us_3_cross1_2{fill:none;stroke:url(#about_us_3_cross1_2_gradient);stroke-width:11;stroke-miterlimit:10;}
    .about_us_3_cross1_3{fill:none;stroke:url(#about_us_3_cross1_3_gradient);stroke-width:11;stroke-miterlimit:10;}
    .about_us_3_cross1_4{fill:none;stroke:url(#about_us_3_cross1_4_gradient);stroke-width:11;stroke-miterlimit:10;}
    .about_us_3_cross1_5{fill:none;stroke:url(#about_us_3_cross1_5_gradient);stroke-width:11;stroke-miterlimit:10;}
    .about_us_3_cross1_6{fill:none;stroke:url(#about_us_3_cross1_6_gradient);stroke-width:11;stroke-miterlimit:10;}
    .about_us_3_cross1_7{fill:none;stroke:url(#about_us_3_cross1_7_gradient);stroke-width:11;stroke-miterlimit:10;}
    .about_us_3_cross1_8{fill:none;stroke:url(#about_us_3_cross1_8_gradient);stroke-width:11;stroke-miterlimit:10;}
    .about_us_3_white_cross_1{fill:none;stroke:#FFFFFF;stroke-width:4;stroke-miterlimit:10;}
    .about_us_3_white_cross_2{fill:none;stroke:#FFFFFF;stroke-width:3;stroke-miterlimit:10;}
    .about_us_3_cross2_1{fill:none;stroke:url(#about_us_3_cross2_1_gradient);stroke-width:6;stroke-miterlimit:10;}
    .about_us_3_cross2_2{fill:none;stroke:url(#about_us_3_cross2_2_gradient);stroke-width:6;stroke-miterlimit:10;}
    .about_us_3_cross2_3{fill:none;stroke:url(#about_us_3_cross2_3_gradient);stroke-width:6;stroke-miterlimit:10;}
    .about_us_3_cross2_4{fill:none;stroke:url(#about_us_3_cross2_4_gradient);stroke-width:6;stroke-miterlimit:10;}
    .about_us_3_cross2_5{fill:none;stroke:url(#about_us_3_cross2_5_gradient);stroke-width:6;stroke-miterlimit:10;}
    .about_us_3_cross2_6{fill:none;stroke:url(#about_us_3_cross2_6_gradient);stroke-width:6;stroke-miterlimit:10;}
    .about_us_3_cross2_7{fill:none;stroke:url(#about_us_3_cross2_7_gradient);stroke-width:6;stroke-miterlimit:10;}
    .about_us_3_cross2_8{fill:none;stroke:url(#about_us_3_cross2_8_gradient);stroke-width:6;stroke-miterlimit:10;}
    .about_us_3_cross3_1{fill:none;stroke:url(#about_us_3_cross3_1_gradient);stroke-width:11;stroke-miterlimit:10;}
    .about_us_3_cross3_2{fill:none;stroke:url(#about_us_3_cross3_2_gradient);stroke-width:11;stroke-miterlimit:10;}
    .about_us_3_cross3_3{fill:none;stroke:url(#about_us_3_cross3_3_gradient);stroke-width:11;stroke-miterlimit:10;}
    .about_us_3_cross3_4{fill:none;stroke:url(#about_us_3_cross3_4_gradient);stroke-width:11;stroke-miterlimit:10;}
    .about_us_3_cross3_5{fill:none;stroke:url(#about_us_3_cross3_5_gradient);stroke-width:11;stroke-miterlimit:10;}
    .about_us_3_cross3_6{fill:none;stroke:url(#about_us_3_cross3_6_gradient);stroke-width:11;stroke-miterlimit:10;}
    .about_us_3_cross3_7{fill:none;stroke:url(#about_us_3_cross3_7_gradient);stroke-width:11;stroke-miterlimit:10;}
    .about_us_3_cross3_8{fill:none;stroke:url(#about_us_3_cross3_8_gradient);stroke-width:11;stroke-miterlimit:10;}

    #about_us_3_text {
        transform-box: fill-box;
        transform-origin: center;
        transform: scale(1);
        transition: 0.5s;
    }
    #about_us_3:hover > #about_us_3_text {
        transform-box: fill-box;
        transform-origin: center;
        transform: scale(1.05);
        transition: 0.5s;
    }
    .about_us_3_freeform {
        transform-box: fill-box;
        transform-origin: center;
        transform: scale(0.98);
        transition: 0.5s;
    }
    #about_us_3:hover > .about_us_3_freeform {
        transform-box: fill-box;
        transform-origin: center;
        transform: scale(1);
        transition: 0.5s;
    }
    .about_us_3_circle1 {
        animation: about_us_3_circle1_flying 12s infinite;
    }
    @keyframes about_us_3_circle1_flying {
        0% {transform: translateY(0)}
        50% {transform: translateY(30px)}
        100% {transform: translateY(0)}
    }
    .about_us_3_circle2 {
        animation: about_us_3_circle2_flying 16s infinite;
    }
    @keyframes about_us_3_circle2_flying {
        0% {transform: translateY(-10px)}
        60% {transform: translateY(30px)}
        100% {transform: translateY(-10px)}
    }
    .about_us_3_circle3 {
        animation: about_us_3_circle3_flying 10s infinite;
        transform: translateY(-15px);
    }
    @keyframes about_us_3_circle3_flying {
        0% {transform: translateY(-15px)}
        50% {transform: translateY(15px)}
        100% {transform: translateY(-15px)}
    }
    #about_us_3_white_cross_1_1 {
        transform: scale(0.75);
        transform-box: fill-box;
        transform-origin: center;
        animation: about_us_3_white_cross_1_1_scaling 5s infinite;
    }
    @keyframes about_us_3_white_cross_1_1_scaling {
        0% {transform: scale(0.75)}
        50%{transform: scale(1.2)}
        100% {transform: scale(0.75)}
    }
    #about_us_3_white_cross_1_2 {
        transform: scale(0.75);
        transform-box: fill-box;
        transform-origin: center;
        animation: about_us_3_white_cross_1_2_scaling 6s infinite;
    }
    @keyframes about_us_3_white_cross_1_2_scaling {
        10% {transform: scale(0.75)}
        60%{transform: scale(1.2)}
        100% {transform: scale(0.75)}
    }
    #about_us_3_white_cross_1_3 {
        transform: scale(0.75);
        transform-box: fill-box;
        transform-origin: center;
        animation: about_us_3_white_cross_1_3_scaling 7s infinite;
    }
    @keyframes about_us_3_white_cross_1_3_scaling {
        0% {transform: scale(0.75)}
        50%{transform: scale(1.2)}
        100% {transform: scale(0.75)}
    }
</style>
    <linearGradient id="about_us_3_circle1_gradient" gradientUnits="userSpaceOnUse" x1="10.2827" y1="531.03"
                    x2="663.8527" y2="531.03" gradientTransform="matrix(1 0 0 -1 0 566)">
                    <stop offset="0" style="stop-color:#1C5EFF"/>
        <stop offset="1" style="stop-color:#00D9FF"/>
                </linearGradient>
    <circle class="about_us_3_circle1" cx="311.7" cy="35" r="27.3"/>
    <linearGradient id="about_us_3_circle2_gradient" gradientUnits="userSpaceOnUse" x1="8.4742" y1="353.94"
                    x2="676.0734" y2="353.94" gradientTransform="matrix(1 0 0 -1 0 566)">
                    <stop offset="0" style="stop-color:#1C5EFF"/>
        <stop offset="1" style="stop-color:#00D9FF"/>
                </linearGradient>
    <circle class="about_us_3_circle2" cx="621" cy="212.1" r="46.4"/>
    <linearGradient id="about_us_3_circle3_gradient" gradientUnits="userSpaceOnUse" x1="10.1145" y1="83.3" x2="659.0797"
                    y2="83.3" gradientTransform="matrix(1 0 0 -1 0 566)">
                    <stop offset="0" style="stop-color:#1C5EFF"/>
        <stop offset="1" style="stop-color:#00D9FF"/>
                </linearGradient>
    <circle class="about_us_3_circle3" cx="301.6" cy="482.7" r="17.8"/>
    <linearGradient id="about_us_3_freeform_gradient" gradientUnits="userSpaceOnUse" x1="9.5085" y1="276.6256"
                    x2="618.1961" y2="276.6256" gradientTransform="matrix(1 0 0 -1 0 566)">
                    <stop offset="0" style="stop-color:#1C5EFF"/>
        <stop offset="1" style="stop-color:#00D9FF"/>
                </linearGradient>
    <path class="about_us_3_freeform" d="M0,273.4c-0.5-45.5,16.8-79.2,24.5-93.8c12.3-23.3,25.8-37.8,29.3-41.5c5.2-5.4,22.3-22.8,50.1-37
	c9.5-4.8,75.3-38.3,133.6-16.1c25.1,9.5,42.6,18.3,42.6,18.3c18.5,9.2,28.6,15.9,44.8,15.8c10.7-0.1,18.7-3.1,23-4.8
	c18.8-7.3,18.2-17.4,44.3-33.1c17.9-10.7,29.3-13.4,32.4-14c5.1-1.1,16.5-3.1,34.2-0.5c12,1.7,26.2,3.8,41.6,11.8
	c34.5,18,47.1,51.8,48.8,56.4c12.9,35.9,1.1,66.8,0.1,69.3c-0.6,1.5-3.2,7.1-4.1,15.2c0,0-1,8.7,1,17.7
	c3.8,17.4,21.3,34.5,26.4,39.8c0,0,24.2,25.1,34.1,66.3c9.2,38-4.4,71.4-8.9,82.1c-4.4,10.4-25.1,55.9-77.3,77.5
	c-54.1,22.3-110.6,5.8-133.6-13.3c-20.1-16.6-29.1-26.5-29.1-26.5c-11.2-12.4-13.9-18.3-24-24c-13.4-7.5-26.7-7.3-30.4-7.1
	c-5.5,0.2-10.6,1.1-31.7,8.9c-12.1,4.5-18.2,6.7-28.7,11.2c-28.1,11.9-62.8,7.3-76.8,5.4C90.3,447.2,43.8,390,40.7,386
	C28.9,371,0.6,330.4,0,273.4z"/>
    <g id="about_us_3_text">
                    <path class="about_us_3_letter"
                          d="M74.5,238.5v19.7h22.8v-19.7h6.2v47.2h-6.2v-22.1H74.5v22.1h-6.1v-47.2H74.5z"/>
        <path class="about_us_3_letter" d="M132.6,285.7l-0.5-4.3h-0.2c-1.9,2.7-5.5,5-10.4,5c-6.9,0-10.4-4.8-10.4-9.7c0-8.2,7.3-12.7,20.4-12.6v-0.7
		c0-2.8-0.8-7.8-7.7-7.8c-3.2,0-6.4,1-8.8,2.5l-1.4-4.1c2.8-1.8,6.9-3,11.1-3c10.4,0,12.9,7.1,12.9,13.9v12.7c0,2.9,0.1,5.8,0.6,8.1
		H132.6z M131.7,268.4c-6.7-0.1-14.4,1-14.4,7.6c0,4,2.7,5.9,5.8,5.9c4.4,0,7.2-2.8,8.2-5.7c0.2-0.6,0.4-1.3,0.4-2V268.4z"/>
        <path class="about_us_3_letter" d="M153.4,251.8v29.1h11.8v-29.1h6v29.1h11.8v-29.1h6.1v33.9h-41.8v-33.9H153.4z"/>
        <path class="about_us_3_letter" d="M204.9,251.8v14.3c0,5.4-0.1,8.8-0.4,13.6l0.2,0.1c2-4.1,3.2-6.5,5.5-10.4l10.6-17.5h7.2v33.9h-5.9v-14.4
		c0-5.5,0.1-8.4,0.4-13.9h-0.2c-2.2,4.3-3.6,7.1-5.6,10.5c-3.2,5.3-6.9,11.8-10.6,17.7h-7.1v-33.9H204.9z"/>
        <path class="about_us_3_letter"
              d="M258.8,251.8v29.1h15.6v-29.1h6.1v29.3l3.5,0.1l-0.4,15.3h-4.8l-0.3-10.8h-25.9v-33.9H258.8z"/>
        <path class="about_us_3_letter" d="M294.5,269.9c0.1,8.3,5.5,11.8,11.6,11.8c4.4,0,7.1-0.8,9.4-1.8l1,4.4c-2.2,1-5.9,2.1-11.3,2.1
		c-10.4,0-16.7-6.9-16.7-17.1c0-10.2,6-18.3,15.9-18.3c11.1,0,14,9.7,14,16c0,1.3-0.1,2.2-0.2,2.9H294.5z M312.5,265.4
		c0.1-3.9-1.6-10-8.5-10c-6.2,0-9,5.7-9.5,10H312.5z"/>
        <path class="about_us_3_letter"
              d="M332.1,251.8v13.7h16.1v-13.7h6.1v33.9h-6.1v-15.3h-16.1v15.3H326v-33.9H332.1z"/>
        <path class="about_us_3_letter"
              d="M370.3,251.8v13.7h16.1v-13.7h6.1v33.9h-6.1v-15.3h-16.1v15.3h-6.1v-33.9H370.3z"/>
        <path class="about_us_3_letter" d="M433.2,268.5c0,12.5-8.7,18-16.9,18c-9.2,0-16.2-6.7-16.2-17.4c0-11.3,7.4-18,16.8-18
		C426.6,251,433.2,258.1,433.2,268.5z M406.3,268.8c0,7.4,4.3,13,10.3,13c5.9,0,10.3-5.5,10.3-13.2c0-5.7-2.9-13-10.2-13
		C409.5,255.6,406.3,262.4,406.3,268.8z"/>
        <path class="about_us_3_letter" d="M465.1,284.4c-1.6,0.8-5.2,2-9.7,2c-10.2,0-16.9-6.9-16.9-17.3c0-10.4,7.1-18,18.2-18c3.6,0,6.9,0.9,8.5,1.8
		l-1.4,4.8c-1.5-0.8-3.8-1.6-7.1-1.6c-7.8,0-12,5.7-12,12.8c0,7.8,5,12.7,11.8,12.7c3.5,0,5.8-0.9,7.6-1.7L465.1,284.4z"/>
        <path class="about_us_3_letter" d="M496.4,251.8v4.9h-10.6v29h-6.1v-29h-10.6v-4.9H496.4z"/>
        <path class="about_us_3_letter" d="M507.4,251.8v14.3c0,5.4-0.1,8.8-0.4,13.6l0.2,0.1c2-4.1,3.2-6.5,5.5-10.4l10.6-17.5h7.2v33.9h-5.9v-14.4
		c0-5.5,0.1-8.4,0.4-13.9h-0.2c-2.2,4.3-3.6,7.1-5.6,10.5c-3.2,5.3-6.9,11.8-10.6,17.7h-7.1v-33.9H507.4z"/>
                </g>
    <g id="about_us_3_cross1">
                    <linearGradient id="about_us_3_cross1_1_gradient" gradientUnits="userSpaceOnUse" x1="2.6157"
                                    y1="130.8681" x2="63.639" y2="130.8681">
                        <stop offset="0" style="stop-color:#FF66C8"/>
                        <stop offset="1" style="stop-color:#FF958E"/>
                    </linearGradient>
        <path class="about_us_3_cross1_1" d="M63.6,131.6H9.5c-0.8,0-1.4-0.6-1.4-1.4v-2.1"/>
        <linearGradient id="about_us_3_cross1_2_gradient" gradientUnits="userSpaceOnUse" x1="2.6157" y1="127.3911"
                        x2="63.639" y2="127.3911">
                        <stop offset="0" style="stop-color:#FF66C8"/>
            <stop offset="1" style="stop-color:#FF958E"/>
                    </linearGradient>
        <path class="about_us_3_cross1_2" d="M63.6,126.7H9.5c-0.8,0-1.4,0.6-1.4,1.4v2.1"/>

        <linearGradient id="about_us_3_cross1_3_gradient" gradientUnits="userSpaceOnUse" x1="211.1921" y1="796.5402"
                        x2="211.1921" y2="784.1699" gradientTransform="matrix(0 1 -1 0 849.8318 -110.1505)">
                        <stop offset="0" style="stop-color:#FF8E96"/>
            <stop offset="1" style="stop-color:#FF9787"/>
                    </linearGradient>
        <path class="about_us_3_cross1_3" d="M58.8,131.6V77.4c0-0.8,0.6-1.4,1.4-1.4h2.1"/>

        <linearGradient id="about_us_3_cross1_4_gradient" gradientUnits="userSpaceOnUse" x1="211.1921" y1="793.0632"
                        x2="211.1921" y2="780.6929" gradientTransform="matrix(0 1 -1 0 849.8318 -110.1505)">
                        <stop offset="0" style="stop-color:#FF8E96"/>
            <stop offset="1" style="stop-color:#FF9787"/>
                    </linearGradient>
        <path class="about_us_3_cross1_4" d="M63.6,131.6V77.4c0-0.8-0.6-1.4-1.4-1.4h-2.1"/>

        <linearGradient id="about_us_3_cross1_5_gradient" gradientUnits="userSpaceOnUse" x1="951.6588" y1="668.3795"
                        x2="890.6354" y2="668.3795" gradientTransform="matrix(-1 0 0 -1 1010.4504 795.7706)">
                        <stop offset="0" style="stop-color:#FF9293"/>
            <stop offset="1" style="stop-color:#FFBE49"/>
                    </linearGradient>
        <path class="about_us_3_cross1_5" d="M58.8,126.7h54.2c0.8,0,1.4,0.6,1.4,1.4v2.1"/>

        <linearGradient id="about_us_3_cross1_6_gradient" gradientUnits="userSpaceOnUse" x1="951.6588" y1="664.9025"
                        x2="890.6354" y2="664.9025" gradientTransform="matrix(-1 0 0 -1 1010.4504 795.7706)">
                        <stop offset="0" style="stop-color:#FF9293"/>
            <stop offset="1" style="stop-color:#FFBE49"/>
                    </linearGradient>
        <path class="about_us_3_cross1_6" d="M58.8,131.6h54.2c0.8,0,1.4-0.6,1.4-1.4v-2.1"/>

        <linearGradient id="about_us_3_cross1_7_gradient" gradientUnits="userSpaceOnUse" x1="748.7035" y1="-103.8499"
                        x2="748.7035" y2="-91.4796" gradientTransform="matrix(0 -1 1 0 160.6186 905.9211)">
                        <stop offset="0" style="stop-color:#FF8E96"/>
            <stop offset="1" style="stop-color:#FF9787"/>
                    </linearGradient>
        <path class="about_us_3_cross1_7" d="M63.6,126.7v54.2c0,0.8-0.6,1.4-1.4,1.4h-2.1"/>

        <linearGradient id="about_us_3_cross1_8_gradient" gradientUnits="userSpaceOnUse" x1="748.7035" y1="-107.3269"
                        x2="748.7035" y2="-94.9566" gradientTransform="matrix(0 -1 1 0 160.6186 905.9211)">
                        <stop offset="0" style="stop-color:#FF8E96"/>
                        <stop offset="1" style="stop-color:#FF9787"/>
        </linearGradient>
        <path class="about_us_3_cross1_8" d="M58.8,126.7v54.2c0,0.8,0.6,1.4,1.4,1.4h2.1"/>
    </g>
    <g id="about_us_3_white_cross_1_1">
        <path class="about_us_3_white_cross_1" d="M395.6,381.1h-23.1c-0.6,0-1.1-0.5-1.1-1.2l0,0"/>
        <path class="about_us_3_white_cross_1" d="M395.6,379h-23.1c-0.6,0-1.1,0.5-1.1,1.2l0,0"/>
        <path class="about_us_3_white_cross_1" d="M393.5,381.1v-23.4c0-0.6,0.5-1.1,1.2-1.1l0,0"/>
        <path class="about_us_3_white_cross_1" d="M395.6,381.1v-23.4c0-0.6-0.5-1.1-1.2-1.1l0,0"/>
        <path class="about_us_3_white_cross_1" d="M395.6,379v23.4c0,0.6-0.5,1.1-1.1,1.1l0,0"/>
        <path class="about_us_3_white_cross_1" d="M393.5,379v23.4c0,0.6,0.6,1.1,1.2,1.1l0,0"/>
        <path class="about_us_3_white_cross_1" d="M393.5,381.1h23c0.5,0,0.9-0.5,0.9-1.2l0,0"/>
        <path class="about_us_3_white_cross_1" d="M393.5,379h23c0.5,0,0.9,0.5,0.9,1.2l0,0"/>
                </g>
    <g id="about_us_3_white_cross_1_2">
                    <path class="about_us_3_white_cross_1" d="M240.9,163.1h-26.2c-0.7,0-1.2-0.6-1.2-1.4l0,0"/>
        <path class="about_us_3_white_cross_1" d="M240.9,160.8h-26.2c-0.7,0-1.2,0.6-1.2,1.4l0,0"/>
        <path class="about_us_3_white_cross_1" d="M238.6,163.1v-26.5c0-0.7,0.6-1.2,1.4-1.2l0,0"/>
        <path class="about_us_3_white_cross_1" d="M240.9,163.1v-26.5c0-0.7-0.6-1.2-1.4-1.2l0,0"/>
        <path class="about_us_3_white_cross_1" d="M240.9,160.8v26.5c0,0.7-0.6,1.2-1.2,1.2l0,0"/>
        <path class="about_us_3_white_cross_1" d="M238.6,160.8v26.5c0,0.7,0.7,1.2,1.4,1.2l0,0"/>
        <path class="about_us_3_white_cross_1" d="M238.6,163.1h26.1c0.6,0,1-0.6,1-1.4l0,0"/>
        <path class="about_us_3_white_cross_1" d="M238.6,160.8h26.1c0.6,0,1,0.6,1,1.4l0,0"/>
                </g>
    <g id="about_us_3_white_cross_2">
                    <path class="about_us_3_white_cross_2" d="M455.6,148.4h-15.5c-0.4,0-0.7-0.3-0.7-0.8l0,0"/>
        <path class="about_us_3_white_cross_2" d="M455.6,147h-15.5c-0.4,0-0.7,0.3-0.7,0.8l0,0"/>
        <path class="about_us_3_white_cross_2" d="M454.2,148.4v-15.7c0-0.4,0.3-0.7,0.8-0.7l0,0"/>
        <path class="about_us_3_white_cross_2" d="M455.6,148.4v-15.7c0-0.4-0.3-0.7-0.8-0.7l0,0"/>
        <path class="about_us_3_white_cross_2" d="M455.6,147v15.7c0,0.4-0.3,0.7-0.7,0.7l0,0"/>
        <path class="about_us_3_white_cross_2" d="M454.2,147v15.7c0,0.4,0.4,0.7,0.8,0.7l0,0"/>
        <path class="about_us_3_white_cross_2" d="M454.2,148.4h15.5c0.3,0,0.6-0.3,0.6-0.8l0,0"/>
        <path class="about_us_3_white_cross_2" d="M454.2,147h15.5c0.3,0,0.6,0.3,0.6,0.8l0,0"/>
                </g>
    <g id="about_us_3_cross2">
                    <linearGradient id="about_us_3_cross2_1_gradient" gradientUnits="userSpaceOnUse" x1="103.8936"
                                    y1="410.5557" x2="143.5403" y2="410.5557">
                        <stop offset="0" style="stop-color:#FF66C8"/>
                        <stop offset="1" style="stop-color:#FF958E"/>
                    </linearGradient>
        <path class="about_us_3_cross2_1" d="M143.5,411h-35.7c-0.5,0-0.9-0.4-0.9-0.9v-1.4"/>
        <linearGradient id="about_us_3_cross2_2_gradient" gradientUnits="userSpaceOnUse" x1="103.8936" y1="408.2608"
                        x2="143.5403" y2="408.2608">
                        <stop offset="0" style="stop-color:#FF66C8"/>
            <stop offset="1" style="stop-color:#FF958E"/>
                    </linearGradient>
        <path class="about_us_3_cross2_2" d="M143.5,407.8h-35.7c-0.5,0-0.9,0.4-0.9,0.9v1.4"/>

        <linearGradient id="about_us_3_cross2_3_gradient" gradientUnits="userSpaceOnUse" x1="501.3351" y1="712.4909"
                        x2="501.3351" y2="705.5865" gradientTransform="matrix(0 1 -1 0 849.8318 -110.1505)">
                        <stop offset="0" style="stop-color:#FF8E96"/>
            <stop offset="1" style="stop-color:#FF9787"/>
                    </linearGradient>
        <path class="about_us_3_cross2_3" d="M140.3,411v-35.7c0-0.5,0.4-0.9,0.9-0.9h1.4"/>

        <linearGradient id="about_us_3_cross2_4_gradient" gradientUnits="userSpaceOnUse" x1="501.3351" y1="710.196"
                        x2="501.3351" y2="703.2916" gradientTransform="matrix(0 1 -1 0 849.8318 -110.1505)">
                        <stop offset="0" style="stop-color:#FF8E96"/>
            <stop offset="1" style="stop-color:#FF9787"/>
                    </linearGradient>
        <path class="about_us_3_cross2_4" d="M143.5,411v-35.7c0-0.5-0.4-0.9-0.9-0.9h-1.4"/>

        <linearGradient id="about_us_3_cross2_5_gradient" gradientUnits="userSpaceOnUse" x1="870.1095" y1="387.5098"
                        x2="830.4628" y2="387.5098" gradientTransform="matrix(-1 0 0 -1 1010.4504 795.7706)">
                        <stop offset="0" style="stop-color:#FF9293"/>
            <stop offset="1" style="stop-color:#FFBE49"/>
                    </linearGradient>
        <path class="about_us_3_cross2_5" d="M140.3,407.8h35.7c0.5,0,0.9,0.4,0.9,0.9v1.4"/>

        <linearGradient id="about_us_3_cross2_6_gradient" gradientUnits="userSpaceOnUse" x1="870.1095" y1="385.2149"
                        x2="830.4628" y2="385.2149" gradientTransform="matrix(-1 0 0 -1 1010.4504 795.7706)">
                        <stop offset="0" style="stop-color:#FF9293"/>
            <stop offset="1" style="stop-color:#FFBE49"/>
                    </linearGradient>
        <path class="about_us_3_cross2_6" d="M140.3,411h35.7c0.5,0,0.9-0.4,0.9-0.9v-1.4"/>

        <linearGradient id="about_us_3_cross2_7_gradient" gradientUnits="userSpaceOnUse" x1="478.2892" y1="-20.9827"
                        x2="478.2892" y2="-14.0783" gradientTransform="matrix(0 -1 1 0 160.6186 905.9211)">
                        <stop offset="0" style="stop-color:#FF8E96"/>
            <stop offset="1" style="stop-color:#FF9787"/>
                    </linearGradient>
        <path class="about_us_3_cross2_7" d="M143.5,407.8v35.7c0,0.5-0.4,0.9-0.9,0.9h-1.4"/>

        <linearGradient id="about_us_3_cross2_8_gradient" gradientUnits="userSpaceOnUse" x1="478.2892" y1="-23.2776"
                        x2="478.2892" y2="-16.3732" gradientTransform="matrix(0 -1 1 0 160.6186 905.9211)">
                        <stop offset="0" style="stop-color:#FF8E96"/>
            <stop offset="1" style="stop-color:#FF9787"/>
                    </linearGradient>
        <path class="about_us_3_cross2_8" d="M140.3,407.8v35.7c0,0.5,0.4,0.9,0.9,0.9h1.4"/>
                </g>
    <g>
                    <linearGradient id="about_us_3_cross3_1_gradient" gradientUnits="userSpaceOnUse" x1="444.4113"
                                    y1="448.9872" x2="528.4728" y2="448.9872">
                        <stop offset="0" style="stop-color:#FF66C8"/>
                        <stop offset="1" style="stop-color:#FF958E"/>
                    </linearGradient>
        <path class="about_us_3_cross3_1" d="M528.5,450h-76.6c-1.1,0-1.9-0.9-1.9-1.9v-3"/>
        <linearGradient id="about_us_3_cross3_2_gradient" gradientUnits="userSpaceOnUse" x1="444.4113" y1="444.0675"
                        x2="528.4728" y2="444.0675">
                        <stop offset="0" style="stop-color:#FF66C8"/>
            <stop offset="1" style="stop-color:#FF958E"/>
                    </linearGradient>
        <path class="about_us_3_cross3_2" d="M528.5,443.1h-76.6c-1.1,0-1.9,0.9-1.9,1.9v3"/>

        <linearGradient id="about_us_3_cross3_3_gradient" gradientUnits="userSpaceOnUse" x1="518.0764" y1="333.7177"
                        x2="518.0764" y2="320.7787" gradientTransform="matrix(0 1 -1 0 849.8318 -110.1505)">
                        <stop offset="0" style="stop-color:#FF8E96"/>
            <stop offset="1" style="stop-color:#FF9787"/>
                    </linearGradient>
        <path class="about_us_3_cross3_3" d="M521.6,450v-76.6c0-1.1,0.9-1.9,1.9-1.9h3"/>

        <linearGradient id="about_us_3_cross3_4_gradient" gradientUnits="userSpaceOnUse" x1="518.0764" y1="328.798"
                        x2="518.0764" y2="315.859" gradientTransform="matrix(0 1 -1 0 849.8318 -110.1505)">
                        <stop offset="0" style="stop-color:#FF8E96"/>
            <stop offset="1" style="stop-color:#FF9787"/>
                    </linearGradient>
        <path class="about_us_3_cross3_4" d="M528.5,450v-76.6c0-1.1-0.9-1.9-1.9-1.9h-3"/>

        <linearGradient id="about_us_3_cross3_5_gradient" gradientUnits="userSpaceOnUse" x1="488.8362" y1="351.7031"
                        x2="404.7747" y2="351.7031" gradientTransform="matrix(-1 0 0 -1 1010.4504 795.7706)">
                        <stop offset="0" style="stop-color:#FF9293"/>
            <stop offset="1" style="stop-color:#FFBE49"/>
                    </linearGradient>
        <path class="about_us_3_cross3_5" d="M521.6,443.1h76.6c1.1,0,1.9,0.9,1.9,1.9v3"/>

        <linearGradient id="about_us_3_cross3_6_gradient" gradientUnits="userSpaceOnUse" x1="488.8362" y1="346.7834"
                        x2="404.7747" y2="346.7834" gradientTransform="matrix(-1 0 0 -1 1010.4504 795.7706)">
                        <stop offset="0" style="stop-color:#FF9293"/>
            <stop offset="1" style="stop-color:#FFBE49"/>
                    </linearGradient>
        <path class="about_us_3_cross3_6" d="M521.6,450h76.6c1.1,0,1.9-0.9,1.9-1.9v-3"/>

        <linearGradient id="about_us_3_cross3_7_gradient" gradientUnits="userSpaceOnUse" x1="420.7923" y1="360.4153"
                        x2="420.7923" y2="373.3542" gradientTransform="matrix(0 -1 1 0 160.6186 905.9211)">
                        <stop offset="0" style="stop-color:#FF8E96"/>
            <stop offset="1" style="stop-color:#FF9787"/>
                    </linearGradient>
        <path class="about_us_3_cross3_7" d="M528.5,443.1v76.6c0,1.1-0.9,1.9-1.9,1.9h-3"/>

        <linearGradient id="about_us_3_cross3_8_gradient" gradientUnits="userSpaceOnUse" x1="420.7923" y1="355.4956"
                        x2="420.7923" y2="368.4346" gradientTransform="matrix(0 -1 1 0 160.6186 905.9211)">
                        <stop offset="0" style="stop-color:#FF8E96"/>
            <stop offset="1" style="stop-color:#FF9787"/>
                    </linearGradient>
        <path class="about_us_3_cross3_8" d="M521.6,443.1v76.6c0,1.1,0.9,1.9,1.9,1.9h3"/>
    </g>
</svg>